<svg xmlns="http://www.w3.org/2000/svg" viewBox="0 0 120 120" width="100%" height="100%">
  <defs>
    <!-- Background Gradient: Emerald to Forest Green -->
    <linearGradient id="smGradBg" x1="0%" y1="0%" x2="100%" y2="100%">
      <stop offset="0%" stop-color="#10b981" />
      <stop offset="50%" stop-color="#059669" />
      <stop offset="100%" stop-color="#047857" />
    </linearGradient>

    <!-- Ear / Detail Shadow -->
    <linearGradient id="smEarGrad" x1="0%" y1="0%" x2="0%" y2="100%">
      <stop offset="0%" stop-color="#0f172a" />
      <stop offset="100%" stop-color="#1e293b" />
    </linearGradient>

    <!-- Subtle Badge Highlight -->
    <linearGradient id="smHighlight" x1="0%" y1="0%" x2="0%" y2="100%">
      <stop offset="0%" stop-color="#ffffff" stop-opacity="0.3" />
      <stop offset="100%" stop-color="#ffffff" stop-opacity="0" />
    </linearGradient>
  </defs>

  <!-- Modern Squircle Background Badge -->
  <rect x="4" y="4" width="112" height="112" rx="34" fill="url(#smGradBg)" />
  <rect x="4" y="4" width="112" height="112" rx="34" fill="url(#smHighlight)" />
  <rect x="4" y="4" width="112" height="112" rx="34" fill="none" stroke="#ffffff" stroke-width="2" stroke-opacity="0.25" />

  <!-- Ears -->
  <circle cx="28" cy="38" r="13" fill="url(#smEarGrad)" />
  <circle cx="28" cy="38" r="7" fill="#334155" />
  <circle cx="92" cy="38" r="13" fill="url(#smEarGrad)" />
  <circle cx="92" cy="38" r="7" fill="#334155" />

  <!-- Sloth Head Base -->
  <ellipse cx="60" cy="62" rx="42" ry="38" fill="#1e293b" />

  <!-- Face Mask (Cream / Soft Warm White) -->
  <path d="M 32 64 C 32 46 44 38 60 38 C 76 38 88 46 88 64 C 88 80 76 88 60 88 C 44 88 32 80 32 64 Z" fill="#ffffff" />

  <!-- Sloth Distinctive Eye Patches (Angle of Focus & Energy) -->
  <!-- Left Eye Patch -->
  <path d="M 36 60 C 34 50 43 45 49 53 C 54 59 47 73 39 71 C 35 70 37 65 36 60 Z" fill="#0f172a" />
  <!-- Right Eye Patch -->
  <path d="M 84 60 C 86 50 77 45 71 53 C 66 59 73 73 81 71 C 85 70 83 65 84 60 Z" fill="#0f172a" />

  <!-- Eyes (Bright, Smart, Focused with Spark of Ambition) -->
  <circle cx="43" cy="59" r="4.5" fill="#ffffff" />
  <circle cx="43" cy="59" r="2.8" fill="#0f172a" />
  <circle cx="44.5" cy="57.5" r="1.3" fill="#ffffff" />

  <circle cx="77" cy="59" r="4.5" fill="#ffffff" />
  <circle cx="77" cy="59" r="2.8" fill="#0f172a" />
  <circle cx="78.5" cy="57.5" r="1.3" fill="#ffffff" />

  <!-- Modern Rounded Snout / Nose -->
  <ellipse cx="60" cy="69" rx="7.5" ry="5" fill="#0f172a" />
  <ellipse cx="60" cy="68" rx="2.5" ry="1.2" fill="#334155" opacity="0.6" />

  <!-- Confident Smile (Determined & Friendly) -->
  <path d="M 53 76 Q 60 82 67 76" fill="none" stroke="#0f172a" stroke-width="2.5" stroke-linecap="round" />

  <!-- Cheek Blushes (Modern Soft Coral/Mint) -->
  <circle cx="36" cy="74" r="3.5" fill="#f43f5e" opacity="0.25" />
  <circle cx="84" cy="74" r="3.5" fill="#f43f5e" opacity="0.25" />

  <!-- "Move" Speed Accent / Sprout of Growth on Top -->
  <path d="M 60 22 C 58 14 67 11 69 18 C 70 23 64 26 60 22 Z" fill="#fbbf24" />
  <path d="M 60 22 C 54 16 51 22 55 26 C 58 28 61 25 60 22 Z" fill="#34d399" />
</svg>
